<mxfile host="app.diagrams.net" agent="Mozilla/5.0 (Macintosh; Intel Mac OS X 10_15_7) AppleWebKit/537.36 (KHTML, like Gecko) Chrome/130.0.0.0 Safari/537.36" version="24.7.17">
  <diagram name="第 1 页" id="sYptc0etC4q6CNGji4dd">
    <mxGraphModel dx="1306" dy="1870" grid="1" gridSize="10" guides="1" tooltips="1" connect="1" arrows="1" fold="1" page="1" pageScale="1" pageWidth="827" pageHeight="1169" math="0" shadow="0">
      <root>
        <mxCell id="0" />
        <mxCell id="1" parent="0" />
        <mxCell id="8Dui-F-EJTnC6IyLNF5j-17" style="edgeStyle=orthogonalEdgeStyle;rounded=0;orthogonalLoop=1;jettySize=auto;html=1;exitX=0.5;exitY=1;exitDx=0;exitDy=0;entryX=0.5;entryY=0;entryDx=0;entryDy=0;" edge="1" parent="1" source="8Dui-F-EJTnC6IyLNF5j-8" target="8Dui-F-EJTnC6IyLNF5j-13">
          <mxGeometry relative="1" as="geometry" />
        </mxCell>
        <mxCell id="8Dui-F-EJTnC6IyLNF5j-8" value="" style="rounded=0;whiteSpace=wrap;html=1;fillColor=none;dashed=1;" vertex="1" parent="1">
          <mxGeometry x="110" y="100" width="220" height="400" as="geometry" />
        </mxCell>
        <mxCell id="8Dui-F-EJTnC6IyLNF5j-6" style="edgeStyle=orthogonalEdgeStyle;rounded=0;orthogonalLoop=1;jettySize=auto;html=1;exitX=0.5;exitY=1;exitDx=0;exitDy=0;entryX=0.5;entryY=0;entryDx=0;entryDy=0;" edge="1" parent="1" source="8Dui-F-EJTnC6IyLNF5j-1" target="8Dui-F-EJTnC6IyLNF5j-2">
          <mxGeometry relative="1" as="geometry" />
        </mxCell>
        <mxCell id="8Dui-F-EJTnC6IyLNF5j-1" value="查询Redis港口数据" style="rounded=0;whiteSpace=wrap;html=1;fillColor=none;" vertex="1" parent="1">
          <mxGeometry x="165" y="210" width="120" height="60" as="geometry" />
        </mxCell>
        <mxCell id="8Dui-F-EJTnC6IyLNF5j-7" style="edgeStyle=orthogonalEdgeStyle;rounded=0;orthogonalLoop=1;jettySize=auto;html=1;exitX=0.5;exitY=1;exitDx=0;exitDy=0;entryX=0.5;entryY=0;entryDx=0;entryDy=0;" edge="1" parent="1" source="8Dui-F-EJTnC6IyLNF5j-2" target="8Dui-F-EJTnC6IyLNF5j-4">
          <mxGeometry relative="1" as="geometry" />
        </mxCell>
        <mxCell id="8Dui-F-EJTnC6IyLNF5j-2" value="查价" style="rounded=0;whiteSpace=wrap;html=1;fillColor=none;" vertex="1" parent="1">
          <mxGeometry x="165" y="310" width="120" height="60" as="geometry" />
        </mxCell>
        <mxCell id="8Dui-F-EJTnC6IyLNF5j-5" style="edgeStyle=orthogonalEdgeStyle;rounded=0;orthogonalLoop=1;jettySize=auto;html=1;exitX=0.5;exitY=1;exitDx=0;exitDy=0;" edge="1" parent="1" source="8Dui-F-EJTnC6IyLNF5j-3" target="8Dui-F-EJTnC6IyLNF5j-1">
          <mxGeometry relative="1" as="geometry" />
        </mxCell>
        <mxCell id="8Dui-F-EJTnC6IyLNF5j-3" value="开始" style="ellipse;whiteSpace=wrap;html=1;fillColor=none;" vertex="1" parent="1">
          <mxGeometry x="170" y="110" width="110" height="70" as="geometry" />
        </mxCell>
        <mxCell id="8Dui-F-EJTnC6IyLNF5j-4" value="结束" style="ellipse;whiteSpace=wrap;html=1;fillColor=none;" vertex="1" parent="1">
          <mxGeometry x="170" y="410" width="110" height="70" as="geometry" />
        </mxCell>
        <mxCell id="8Dui-F-EJTnC6IyLNF5j-9" value="单次询价" style="text;html=1;align=center;verticalAlign=middle;whiteSpace=wrap;rounded=0;" vertex="1" parent="1">
          <mxGeometry x="350" y="100" width="60" height="30" as="geometry" />
        </mxCell>
        <mxCell id="8Dui-F-EJTnC6IyLNF5j-16" style="edgeStyle=orthogonalEdgeStyle;rounded=0;orthogonalLoop=1;jettySize=auto;html=1;exitX=0.5;exitY=1;exitDx=0;exitDy=0;entryX=0.5;entryY=0;entryDx=0;entryDy=0;" edge="1" parent="1" source="8Dui-F-EJTnC6IyLNF5j-11" target="8Dui-F-EJTnC6IyLNF5j-14">
          <mxGeometry relative="1" as="geometry" />
        </mxCell>
        <mxCell id="8Dui-F-EJTnC6IyLNF5j-11" value="导入报价" style="ellipse;whiteSpace=wrap;html=1;fillColor=none;" vertex="1" parent="1">
          <mxGeometry x="170" y="-110" width="110" height="70" as="geometry" />
        </mxCell>
        <mxCell id="8Dui-F-EJTnC6IyLNF5j-18" style="edgeStyle=orthogonalEdgeStyle;rounded=0;orthogonalLoop=1;jettySize=auto;html=1;exitX=0.5;exitY=1;exitDx=0;exitDy=0;entryX=0;entryY=0.5;entryDx=0;entryDy=0;" edge="1" parent="1" source="8Dui-F-EJTnC6IyLNF5j-13" target="8Dui-F-EJTnC6IyLNF5j-14">
          <mxGeometry relative="1" as="geometry">
            <mxPoint x="60" y="120" as="targetPoint" />
            <Array as="points">
              <mxPoint x="220" y="650" />
              <mxPoint x="30" y="650" />
              <mxPoint x="30" y="30" />
            </Array>
          </mxGeometry>
        </mxCell>
        <mxCell id="8Dui-F-EJTnC6IyLNF5j-20" style="edgeStyle=orthogonalEdgeStyle;rounded=0;orthogonalLoop=1;jettySize=auto;html=1;exitX=0.5;exitY=1;exitDx=0;exitDy=0;entryX=0.5;entryY=0;entryDx=0;entryDy=0;" edge="1" parent="1" source="8Dui-F-EJTnC6IyLNF5j-13" target="8Dui-F-EJTnC6IyLNF5j-19">
          <mxGeometry relative="1" as="geometry" />
        </mxCell>
        <mxCell id="8Dui-F-EJTnC6IyLNF5j-13" value="遍历是否结束" style="rhombus;whiteSpace=wrap;html=1;fillColor=none;" vertex="1" parent="1">
          <mxGeometry x="155" y="540" width="130" height="90" as="geometry" />
        </mxCell>
        <mxCell id="8Dui-F-EJTnC6IyLNF5j-14" value="读取一条线路" style="rounded=0;whiteSpace=wrap;html=1;fillColor=none;" vertex="1" parent="1">
          <mxGeometry x="165" width="120" height="60" as="geometry" />
        </mxCell>
        <mxCell id="8Dui-F-EJTnC6IyLNF5j-15" style="edgeStyle=orthogonalEdgeStyle;rounded=0;orthogonalLoop=1;jettySize=auto;html=1;exitX=0.5;exitY=1;exitDx=0;exitDy=0;entryX=0.532;entryY=-0.01;entryDx=0;entryDy=0;entryPerimeter=0;" edge="1" parent="1" source="8Dui-F-EJTnC6IyLNF5j-14" target="8Dui-F-EJTnC6IyLNF5j-8">
          <mxGeometry relative="1" as="geometry" />
        </mxCell>
        <mxCell id="8Dui-F-EJTnC6IyLNF5j-19" value="结束" style="ellipse;whiteSpace=wrap;html=1;fillColor=none;" vertex="1" parent="1">
          <mxGeometry x="165" y="700" width="110" height="70" as="geometry" />
        </mxCell>
        <mxCell id="8Dui-F-EJTnC6IyLNF5j-21" value="否" style="text;html=1;align=center;verticalAlign=middle;whiteSpace=wrap;rounded=0;" vertex="1" parent="1">
          <mxGeometry x="140" y="620" width="60" height="30" as="geometry" />
        </mxCell>
        <mxCell id="8Dui-F-EJTnC6IyLNF5j-22" value="是" style="text;html=1;align=center;verticalAlign=middle;whiteSpace=wrap;rounded=0;" vertex="1" parent="1">
          <mxGeometry x="210" y="660" width="60" height="30" as="geometry" />
        </mxCell>
      </root>
    </mxGraphModel>
  </diagram>
</mxfile>
